<svg width="60" height="60" viewBox="0 0 60 60" fill="none" xmlns="http://www.w3.org/2000/svg">
<circle cx="30" cy="30" r="30" fill="white"/>
<path d="M19.9393 36.9393C19.3536 37.5251 19.3536 38.4749 19.9393 39.0607C20.5251 39.6464 21.4749 39.6464 22.0607 39.0607L19.9393 36.9393ZM39.5 21C39.5 20.1716 38.8284 19.5 38 19.5L24.5 19.5C23.6716 19.5 23 20.1716 23 21C23 21.8284 23.6716 22.5 24.5 22.5H36.5V34.5C36.5 35.3284 37.1716 36 38 36C38.8284 36 39.5 35.3284 39.5 34.5L39.5 21ZM22.0607 39.0607L39.0607 22.0607L36.9393 19.9393L19.9393 36.9393L22.0607 39.0607Z" fill="black"/>
</svg>
