<svg width="7" height="14" viewBox="0 0 7 14" fill="none" xmlns="http://www.w3.org/2000/svg">
<path d="M5.83016 14C5.68077 14.0005 5.53316 13.9675 5.39818 13.9035C5.2632 13.8394 5.14428 13.746 5.05016 13.63L0.220164 7.62997C0.073082 7.45104 -0.00732422 7.2266 -0.00732422 6.99497C-0.00732422 6.76335 0.073082 6.5389 0.220164 6.35997L5.22016 0.359971C5.3899 0.155754 5.63381 0.0273295 5.89824 0.00294976C6.16267 -0.02143 6.42595 0.060232 6.63016 0.22997C6.83438 0.399709 6.9628 0.64362 6.98718 0.908047C7.01156 1.17247 6.9299 1.43575 6.76016 1.63997L2.29016 6.99997L6.61016 12.36C6.73245 12.5068 6.81012 12.6855 6.834 12.875C6.85788 13.0646 6.82697 13.257 6.74491 13.4295C6.66285 13.6021 6.53309 13.7475 6.37098 13.8486C6.20887 13.9497 6.0212 14.0022 5.83016 14Z" fill="black"/>
</svg>
