<svg width="120" height="120" viewBox="0 0 120 120" fill="none" xmlns="http://www.w3.org/2000/svg">
<circle cx="60" cy="60" r="60" fill="black"/>
<path d="M39.8787 73.8787C38.7071 75.0503 38.7071 76.9497 39.8787 78.1213C41.0503 79.2929 42.9497 79.2929 44.1213 78.1213L39.8787 73.8787ZM79 42C79 40.3431 77.6569 39 76 39H49C47.3431 39 46 40.3431 46 42C46 43.6569 47.3431 45 49 45H73V69C73 70.6569 74.3431 72 76 72C77.6569 72 79 70.6569 79 69V42ZM44.1213 78.1213L78.1213 44.1213L73.8787 39.8787L39.8787 73.8787L44.1213 78.1213Z" fill="white"/>
</svg>
