<svg width="60" height="60" viewBox="0 0 60 60" fill="none" xmlns="http://www.w3.org/2000/svg">
<circle cx="30" cy="30" r="30" fill="#F9F9F9"/>
<path d="M40.9998 31.8298H31.8332V40.9964C31.8332 41.4826 31.64 41.949 31.2962 42.2928C30.9524 42.6366 30.4861 42.8298 29.9998 42.8298C29.5136 42.8298 29.0473 42.6366 28.7035 42.2928C28.3597 41.949 28.1665 41.4826 28.1665 40.9964V31.8298H18.9998C18.5136 31.8298 18.0473 31.6366 17.7035 31.2928C17.3597 30.949 17.1665 30.4826 17.1665 29.9964C17.1665 29.5102 17.3597 29.0439 17.7035 28.7001C18.0473 28.3562 18.5136 28.1631 18.9998 28.1631H28.1665V18.9964C28.1665 18.5102 28.3597 18.0439 28.7035 17.7001C29.0473 17.3562 29.5136 17.1631 29.9998 17.1631C30.4861 17.1631 30.9524 17.3562 31.2962 17.7001C31.64 18.0439 31.8332 18.5102 31.8332 18.9964V28.1631H40.9998C41.4861 28.1631 41.9524 28.3562 42.2962 28.7001C42.64 29.0439 42.8332 29.5102 42.8332 29.9964C42.8332 30.4826 42.64 30.949 42.2962 31.2928C41.9524 31.6366 41.4861 31.8298 40.9998 31.8298Z" fill="#A879F4"/>
</svg>
