<svg width="31" height="32" viewBox="0 0 31 32" fill="none" xmlns="http://www.w3.org/2000/svg">
<g clip-path="url(#clip0_120_417)">
<path fill-rule="evenodd" clip-rule="evenodd" d="M25.4944 6.27493C25.8118 6.14131 26.1593 6.09523 26.5007 6.14147C26.842 6.18772 27.1647 6.32461 27.4352 6.5379C27.7056 6.75118 27.914 7.03307 28.0386 7.35421C28.1631 7.67535 28.1994 8.02401 28.1435 8.36389L25.2297 26.0378C24.9471 27.7426 23.0765 28.7203 21.513 27.8711C20.2052 27.1607 18.2627 26.0661 16.5154 24.924C15.6418 24.3523 12.9657 22.5215 13.2946 21.2188C13.5773 20.105 18.0738 15.9193 20.6432 13.4308C21.6518 12.4532 21.1918 11.8892 20.0009 12.7885C17.0435 15.0213 12.2951 18.4168 10.7252 19.3727C9.34026 20.2155 8.61824 20.3593 7.75491 20.2155C6.17984 19.9534 4.71911 19.5474 3.52689 19.0528C1.91585 18.3847 1.99421 16.1699 3.5256 15.5249L25.4944 6.27493Z" fill="white"/>
</g>
<defs>
<clipPath id="clip0_120_417">
<rect width="30.8333" height="30.8333" fill="white" transform="translate(0.0859375 0.583008)"/>
</clipPath>
</defs>
</svg>
