<svg width="25" height="25" viewBox="0 0 25 25" fill="none" xmlns="http://www.w3.org/2000/svg">
<path d="M22.4 19.1472H20.0229C19.124 19.1472 18.8531 18.4191 17.2417 16.8066C15.8333 15.4493 15.2385 15.2805 14.8823 15.2805C14.3896 15.2805 14.2552 15.4159 14.2552 16.0941V18.2316C14.2552 18.8097 14.0677 19.1482 12.5573 19.1482C11.092 19.0498 9.671 18.6046 8.41143 17.8494C7.15185 17.0942 6.08971 16.0506 5.3125 14.8045C3.46707 12.5076 2.18303 9.81185 1.5625 6.93156C1.5625 6.57531 1.69792 6.25239 2.37708 6.25239H4.75208C5.3625 6.25239 5.58229 6.52427 5.82188 7.15239C6.975 10.5461 8.94271 13.4982 9.74167 13.4982C10.0479 13.4982 10.1812 13.3628 10.1812 12.5993V9.10343C10.0802 7.50864 9.23333 7.37427 9.23333 6.79718C9.24405 6.64493 9.31369 6.50286 9.42747 6.40113C9.54126 6.29941 9.69022 6.24605 9.84271 6.25239H13.576C14.0865 6.25239 14.2552 6.50656 14.2552 7.11697V11.8357C14.2552 12.3451 14.474 12.5138 14.6281 12.5138C14.9344 12.5138 15.1698 12.3451 15.7312 11.7847C16.9347 10.317 17.918 8.68173 18.65 6.93051C18.7249 6.72026 18.8666 6.54028 19.0533 6.41803C19.2401 6.29579 19.4617 6.23798 19.6844 6.25343H22.0604C22.7729 6.25343 22.924 6.60968 22.7729 7.11802C21.9087 9.05387 20.8394 10.8915 19.5833 12.5993C19.3271 12.9899 19.225 13.193 19.5833 13.6513C19.8187 14.0076 20.6521 14.7034 21.2115 15.3649C22.026 16.1774 22.7021 17.117 23.2135 18.1461C23.4177 18.8086 23.0781 19.1472 22.4 19.1472Z" fill="white"/>
</svg>
